<?xml version="1.0" encoding="UTF-8" standalone="no"?>
<!-- Created with Inkscape (http://www.inkscape.org/) -->

<svg
   width="210mm"
   height="297mm"
   viewBox="0 0 210 297"
   version="1.1"
   id="svg5"
   inkscape:version="1.1 (c68e22c387, 2021-05-23)"
   sodipodi:docname="comdatech-icon-colour-light.svg"
   xmlns:inkscape="http://www.inkscape.org/namespaces/inkscape"
   xmlns:sodipodi="http://sodipodi.sourceforge.net/DTD/sodipodi-0.dtd"
   xmlns="http://www.w3.org/2000/svg"
   xmlns:svg="http://www.w3.org/2000/svg">
  <sodipodi:namedview
     id="namedview7"
     pagecolor="#ffffff"
     bordercolor="#666666"
     borderopacity="1.0"
     inkscape:pageshadow="2"
     inkscape:pageopacity="0.0"
     inkscape:pagecheckerboard="0"
     inkscape:document-units="mm"
     showgrid="false"
     inkscape:zoom="0.45255331"
     inkscape:cx="396.63835"
     inkscape:cy="561.25984"
     inkscape:window-width="1366"
     inkscape:window-height="716"
     inkscape:window-x="-8"
     inkscape:window-y="-8"
     inkscape:window-maximized="1"
     inkscape:current-layer="layer1" />
  <defs
     id="defs2" />
  <g
     inkscape:label="Layer 1"
     inkscape:groupmode="layer"
     id="layer1">
    <path
       id="path1158"
       style="fill:#faf8f8;fill-opacity:1;stroke-width:0.264583"
       d="m 138.19988,146.81659 c -0.0778,-0.0778 -2.15149,-0.2606 -4.60816,-0.40616 -2.45667,-0.14556 -6.13355,-0.37193 -8.17084,-0.50304 -2.0373,-0.13112 -3.97206,-0.24601 -4.29948,-0.25532 -0.33962,-0.01 -0.59532,-0.18393 -0.59532,-0.40575 0,-0.68237 1.06606,-2.34968 2.33671,-3.65459 2.97012,-3.05022 7.65043,-3.83913 11.66508,-1.96626 2.29056,1.06856 4.77015,4.12613 5.1987,6.41047 0.16574,0.8835 0.14036,0.92212 -0.60611,0.92212 -0.42851,0 -0.84277,-0.0637 -0.92058,-0.14147 z m -31.12494,-2.17007 -1.14801,-0.10243 0.12785,-1.3727 c 0.29713,-3.19032 1.74405,-7.59166 3.78945,-11.52701 1.2861,-2.47445 3.32093,-5.75657 3.79275,-6.11757 0.0951,-0.0728 0.34459,-0.38167 0.55444,-0.68647 0.73974,-1.07447 2.94211,-3.50829 3.29838,-3.645 0.38457,-0.14758 3.3896,2.62894 3.24992,3.00278 -0.0447,0.11975 -0.8561,1.03324 -1.80301,2.02998 -3.18644,3.35408 -5.68784,7.44462 -7.09462,11.60184 -0.81883,2.41972 -1.37017,4.8238 -1.37017,5.97449 v 1.03697 l -1.12448,-0.0462 c -0.61846,-0.0254 -1.64109,-0.0923 -2.2725,-0.14866 z m -13.404063,-0.87563 c -0.727604,-0.11332 -2.079963,-0.21647 -3.005245,-0.22923 l -1.68233,-0.0232 0.190294,-0.72761 c 0.104661,-0.40018 0.28538,-1.38244 0.401598,-2.1828 0.43888,-3.02252 1.785649,-8.1802 2.65988,-10.18647 0.126822,-0.29104 0.479353,-1.18401 0.783404,-1.98437 0.974307,-2.5647 2.699002,-5.86468 4.839846,-9.26042 1.146794,-1.81901 2.162726,-3.36682 2.257616,-3.43958 0.0949,-0.0728 0.52656,-0.60854 0.95926,-1.19062 1.82863,-2.45996 5.25683,-6.21771 5.67241,-6.21771 0.0899,0 1.20592,1.0473 2.48002,2.32734 l 2.31656,2.32734 -1.9475,1.97213 c -2.91092,2.94775 -5.6152,6.37946 -7.39205,9.38048 -0.81092,1.3696 -3.000127,6.02647 -3.482682,7.40833 -0.254084,0.72761 -0.555289,1.56104 -0.669343,1.85208 -0.401055,1.02341 -0.768085,2.402 -1.197496,4.49792 -0.238514,1.16417 -0.546526,2.62439 -0.684472,3.24494 -0.137945,0.62055 -0.250811,1.48376 -0.250811,1.91823 0,0.86779 0.01119,0.86523 -2.248959,0.5132 z m -21.13307,-1.39579 -2.347655,-0.26606 0.174306,-1.3458 c 0.367838,-2.84003 0.777825,-5.03233 1.612396,-8.62184 0.253754,-1.09141 0.519711,-2.31326 0.591016,-2.71521 0.0713,-0.40196 0.234979,-0.79594 0.363722,-0.87551 0.128743,-0.0796 0.234078,-0.3322 0.234078,-0.5614 0,-0.50661 1.675609,-5.21549 2.570935,-7.22496 1.531535,-3.43738 3.154651,-6.64096 4.477409,-8.83715 0.780076,-1.29518 1.418322,-2.39239 1.418322,-2.43826 0,-0.0459 0.854017,-1.30789 1.897817,-2.80451 2.463503,-3.53221 5.183684,-6.902865 7.944535,-9.844295 l 2.215747,-2.36067 3.231367,3.23137 c 1.777251,1.77725 3.231368,3.317215 3.231368,3.422165 0,0.10494 -1.067407,1.22937 -2.372017,2.49873 -3.251576,3.16373 -6.049105,6.58328 -8.658338,10.58347 -2.070667,3.17453 -5.373812,9.51378 -5.373812,10.31318 0,0.19991 -0.105733,0.47657 -0.234961,0.61482 -0.233521,0.24981 -1.231638,3.13391 -1.872519,5.41073 -0.184328,0.65484 -0.432724,1.48828 -0.551993,1.85208 -0.119266,0.3638 -0.408212,1.67349 -0.642096,2.91042 -0.233886,1.23692 -0.539215,2.82358 -0.678505,3.52591 -0.139293,0.70233 -0.253259,1.86319 -0.253259,2.57969 v 1.30273 l -2.315104,-0.0418 c -1.273307,-0.023 -3.371549,-0.16151 -4.662759,-0.30785 z"
       inkscape:export-filename="C:\Users\Rorschack\Documents\01WriteWren\Client_Comdatech\New Logo\comdatech-icon-colour-light.png"
       inkscape:export-xdpi="96"
       inkscape:export-ydpi="96" />
    <path
       id="path1027"
       style="fill:#91e000;fill-opacity:1;stroke-width:0.264583"
       d="m 91.55093,200.59116 c -1.016841,-1.06117 -2.164088,-2.3411 -2.549435,-2.84427 -0.385347,-0.50318 -0.921128,-1.15309 -1.190625,-1.44425 -0.269496,-0.29116 -0.840885,-1.00554 -1.269756,-1.5875 -0.428869,-0.58196 -0.860449,-1.11765 -0.959065,-1.19041 -0.408495,-0.30139 -4.522731,-6.68416 -5.969126,-9.26041 -1.646976,-2.93352 -2.351231,-4.32319 -3.285083,-6.48229 -0.314703,-0.72761 -0.726982,-1.68011 -0.916175,-2.11667 -0.189196,-0.43656 -0.544372,-1.38906 -0.789283,-2.11667 -0.244912,-0.7276 -0.5538,-1.52966 -0.686419,-1.78234 -0.13262,-0.25269 -0.241126,-0.69918 -0.241126,-0.99219 0,-0.29302 -0.119063,-0.53276 -0.264584,-0.53276 -0.14552,0 -0.264583,-0.29927 -0.264583,-0.66505 0,-0.36577 -0.114251,-0.87179 -0.253891,-1.12448 -0.24726,-0.44743 -0.70948,-2.29779 -0.973971,-3.89901 -0.07211,-0.43656 -0.234679,-1.03187 -0.36126,-1.32292 -0.2618,-0.60194 -0.425738,-1.60393 -0.837975,-5.12169 -0.227108,-1.938 -0.218947,-2.51986 0.03757,-2.67839 0.180238,-0.1114 1.892944,-0.27486 3.806014,-0.36325 1.913069,-0.0884 3.775966,-0.19281 4.139768,-0.23202 0.627187,-0.0676 0.664919,0.004 0.72825,1.3839 0.06978,1.52038 0.693486,5.55165 1.105251,7.14375 0.702601,2.71659 1.454767,5.35714 1.921867,6.74687 0.284049,0.84512 0.461508,1.30468 1.072756,2.77812 0.211291,0.50933 0.545447,1.34277 0.742574,1.85209 0.399767,1.03289 2.471788,5.06015 3.131529,6.08655 0.893128,1.38949 1.095664,1.73475 1.325007,2.2587 0.130014,0.29702 0.427387,0.69855 0.660826,0.89229 0.233442,0.19374 0.424439,0.51627 0.424439,0.71673 0,0.20046 0.111041,0.36448 0.246753,0.36448 0.135716,0 0.315672,0.21713 0.399902,0.48252 0.08423,0.26539 0.360146,0.71311 0.613143,0.99493 0.252997,0.28182 0.933651,1.10648 1.512567,1.83258 1.527807,1.91623 2.898029,3.40246 5.360469,5.8143 l 2.179712,2.13492 -3.109728,3.10162 c -1.710348,1.7059 -3.228475,3.10163 -3.373614,3.10163 -0.14514,0 -1.095852,-0.86824 -2.112693,-1.92941 z m 13.59969,-13.0857 c -1.20653,-1.27132 -3.55629,-4.01152 -4.8213,-5.62239 -0.754644,-0.96097 -4.144901,-6.36799 -4.144901,-6.61058 0,-0.14772 -0.0893,-0.27035 -0.198438,-0.27249 -0.10914,-0.002 -0.555624,-0.83383 -0.992187,-1.84818 -0.436562,-1.01435 -0.883047,-1.84603 -0.992187,-1.84818 -0.109141,-0.002 -0.198438,-0.21822 -0.198438,-0.48016 0,-0.26194 -0.09938,-0.58935 -0.220853,-0.7276 -0.121467,-0.13824 -0.428371,-0.84667 -0.682006,-1.57428 -0.502883,-1.44262 -0.72903,-2.0342 -1.163158,-3.04271 -0.37683,-0.8754 -1.409248,-4.91474 -1.555372,-6.08541 -0.06357,-0.50933 -0.218326,-1.16417 -0.343895,-1.4552 -0.125566,-0.29105 -0.283998,-1.25693 -0.352075,-2.14639 l -0.123772,-1.61722 1.889836,-0.16653 c 1.03941,-0.0916 2.503017,-0.24221 3.252457,-0.33473 l 1.36262,-0.16821 0.12219,1.42278 c 0.221361,2.57754 0.900078,5.92598 1.521888,7.5082 0.11438,0.29105 0.414332,1.24355 0.666565,2.11667 0.755909,2.61665 3.682196,8.70282 4.780546,9.94271 0.20352,0.22974 0.37003,0.54724 0.37003,0.70555 0,0.15832 0.0908,0.32754 0.20176,0.37605 0.11098,0.0485 0.64187,0.70675 1.17978,1.46276 1.37933,1.93863 1.9042,2.54148 4.37315,5.02292 1.20054,1.20662 2.18281,2.28751 2.18281,2.40195 0,0.23293 -4.29298,4.56202 -4.52396,4.56202 -0.081,0 -0.797,-0.68461 -1.59109,-1.52135 z m 11.27442,-12.39456 c -1.9903,-2.25953 -2.19145,-2.50388 -2.81511,-3.4197 -0.34346,-0.50436 -0.71377,-0.91783 -0.82291,-0.91882 -0.10914,-0.001 -0.19843,-0.11966 -0.19843,-0.26369 0,-0.14403 -0.5115,-1.06677 -1.13667,-2.05052 -0.97389,-1.53252 -2.63674,-4.75682 -3.37857,-6.55114 -0.12033,-0.29105 -0.41864,-1.24354 -0.6629,-2.11667 -0.24427,-0.87312 -0.54022,-1.82562 -0.65768,-2.11667 -0.23539,-0.58329 -0.47361,-1.79091 -0.68929,-3.49423 -0.12754,-1.0072 -0.0809,-1.12806 0.49113,-1.27162 0.34764,-0.0872 1.34148,-0.12219 2.20854,-0.0776 l 1.57648,0.081 0.16099,1.5875 c 0.19957,1.96798 0.62384,3.63676 1.54715,6.08542 0.10974,0.29104 0.78121,1.71978 1.49214,3.175 1.44371,2.95512 3.09377,5.2551 5.58857,7.78978 l 1.67754,1.70436 -1.52075,1.53679 c -0.83641,0.84523 -1.584,1.53353 -1.66132,1.52956 -0.0773,-0.004 -0.61682,-0.54788 -1.19891,-1.2087 z m 11.64167,-16.47946 c -1.62992,-0.29893 -4.08372,-1.60188 -5.29167,-2.80983 -0.45706,-0.45706 -1.58219,-2.08513 -1.97752,-2.86148 -0.30271,-0.59445 -0.3116,-0.78663 -0.044,-0.95199 0.18438,-0.11396 2.51607,-0.28839 5.18155,-0.38764 2.66548,-0.0992 5.84287,-0.29502 7.06088,-0.43505 1.218,-0.14004 3.26437,-0.25552 4.54748,-0.25662 2.29293,-0.002 2.33007,0.008 2.16558,0.5933 -0.65182,2.3187 -3.08426,5.28097 -5.03736,6.1346 -0.57676,0.25208 -1.24139,0.55863 -1.47695,0.68122 -0.63296,0.32941 -3.90959,0.51694 -5.12795,0.29349 z"
       inkscape:export-filename="C:\Users\Rorschack\Documents\01WriteWren\Client_Comdatech\New Logo\comdatech-icon-colour-light.png"
       inkscape:export-xdpi="96"
       inkscape:export-ydpi="96" />
  </g>
</svg>
